<svg t="1651116868992" class="icon" viewBox="0 0 1024 1024" version="1.1" xmlns="http://www.w3.org/2000/svg" p-id="1421"
    width="128" height="128">
    <path
        d="M224.31816406 535.51865234c97.71416016-20.98300781 84.40136719-137.75712891 81.47636719-163.2796875-4.78564453-39.346875-51.06621094-108.12304688-113.91152344-102.68349609-79.08398438 7.09628906-90.63808594 121.33476563-90.63808594 121.33476563-10.69628906 52.8046875 25.60429688 165.63164063 123.07324219 144.62841796zM328.08535156 738.63476563c-2.86259766 8.20107422-9.24345703 29.20429688-3.72128906 47.48730468 10.90019531 41.02470703 46.5046875 42.86425781 46.5046875 42.86425781h51.16816406v-125.07714843h-54.7875c-24.6234375 7.34238281-36.50537109 26.50517578-39.1640625 34.72558593z m77.59072266-398.93378907c53.97011719 0 97.59111328-62.10966797 97.59111328-138.90234375C503.2671875 124.08857422 459.64619141 62 405.67607422 62c-53.8875 0-97.61132813 62.08857422-97.61132813 138.79951172 0 76.79267578 43.74316406 138.90234375 97.61132813 138.90234375z m232.44433594 9.1819336c72.13007812 9.36650391 118.51171875-67.60986328 127.73583984-125.95605469 9.40693359-58.26445313-37.1390625-125.93671875-88.20439453-137.5725586-51.16816406-11.73867187-115.05673828 70.228125-120.88476563 123.665625-6.95390625 65.3203125 9.34541016 130.59931641 81.35332032 139.86298829z m176.73574218 342.96064453s-111.6-86.34375-176.75683593-179.66074219C549.79296875 374.59179687 424.3484375 430.58691406 382.38330078 500.56806641 340.60185547 570.52988281 275.48632812 614.78544922 266.24199219 626.50390625c-9.38671875 11.53476563-134.81103516 79.24746094-106.95761719 202.91308594 27.83408203 123.58476562 125.62998047 121.2328125 125.62998047 121.2328125s72.06855469 7.09628906 155.671875-11.61650391c83.64375-18.5484375 155.65078125 4.62304688 155.65078125 4.62304688s195.36679688 65.42138672 248.82539062-60.51445313c53.39707031-125.97714844-30.20625-191.29746094-30.20625-191.29746094zM480.58789062 879.27734375H353.56748047c-54.84902344-10.94150391-76.69072266-48.36621094-79.45136719-54.74707031-2.7-6.4828125-18.28300781-36.56601562-10.0415039-87.75439453 23.70234375-76.69072266 91.29199219-82.19179687 91.29199218-82.19179688h67.61074219v-83.11201172l57.58945313 0.87890625V879.27734375z m236.55410157-0.87890625h-146.16210938c-56.64814453-14.60214844-59.28662109-54.84990234-59.28662109-54.84990234v-161.62207032l59.28662109-0.96152343v145.26210937c3.62021484 15.50126953 22.86474609 18.30322266 22.8647461 18.30322266h60.22705078V661.92470703h63.0703125v216.47197266z m206.9015625-431.53417969c0-27.9140625-23.19169922-111.96738281-109.18652344-111.96738281-86.13984375 0-97.65351562 79.32832031-97.65351563 135.40429687 0 53.52011719 4.51933594 128.22714844 111.51826172 125.85498047 107.04023437-2.37304688 95.32177734-121.2328125 95.32177735-149.29101562z m0 0"
        fill="#3245DF" p-id="1422"></path>
</svg>
