<svg t="1649588395435" class="icon" viewBox="0 0 1024 1024" version="1.1" xmlns="http://www.w3.org/2000/svg" p-id="1159"
    width="128" height="128">
    <path
        d="M943.18348515 475.21759118L549.67289173 475.21759118 549.67289173 238.23464675 708.5952 238.23464675 708.5952 2.84445923 319.74779904 2.84445923 319.74779904 238.23464675 475.97581767 238.23464675 475.97581767 475.21759118 81.23451392 475.21759118 81.23451392 535.72251193 81.23451392 553.67594098 81.23451392 789.06612963 2.59946155 789.06612963 2.59946155 1021.15554077 236.84077341 1021.15554077 236.84077341 789.06612963 159.85559438 789.06612963 159.85559438 553.67594098 475.97581767 553.67594098 475.97581767 789.06612963 395.70369877 789.06612963 395.70369877 1021.15554077 629.94501063 1021.15554077 629.94501063 789.06612963 549.67289173 789.06612963 549.67289173 553.67594098 864.96759581 553.67594098 864.96759581 789.06612963 787.18717155 789.06612963 787.18717155 1021.15554077 1021.39937451 1021.15554077 1021.39937451 789.06612963 943.18348515 789.06612963Z"
        p-id="1160"></path>
</svg>
