<svg t="1651116859782" class="icon" viewBox="0 0 1024 1024" version="1.1" xmlns="http://www.w3.org/2000/svg" p-id="1264"
    width="128" height="128">
    <path
        d="M873.84470117 731.51419678a288.4684544 288.4684544 0 0 1-36.90203203 16.51805244 359.39064551 359.39064551 0 0 1-126.16980381 22.84411465c-166.23486738 0-311.03141133-114.220575-311.03141221-261.12580664a110.2843582 110.2843582 0 0 1 57.63745987-95.94528223c-150.41971055 6.32606221-189.07898203 163.07183584-189.07898291 254.79974356 0 259.72001455 239.33603496 286.07860898 290.99887998 286.07860898 27.76438565 0 69.58668867-8.08330253 94.89093926-16.1666042l4.56882275-1.40579209a449.85334042 449.85334042 0 0 0 234.0643166-185.56450312 14.05791651 14.05791651 0 0 0-4.21737539-19.32963574 14.79595781 14.79595781 0 0 0-14.76081211-0.70289561z"
        fill="#0F5197" p-id="1265"></path>
    <path
        d="M433.48045449 910.40118945A279.33080888 279.33080888 0 0 1 353.70177558 835.54278154a283.65361787 283.65361787 0 0 1 103.67713741-421.73750654 116.43469628 116.43469628 0 0 1 54.47442744-14.05791738 114.53687753 114.53687753 0 0 1 90.3221165 45.68823017 113.20137598 113.20137598 0 0 1 22.49266729 65.72076153c0-0.7028956 86.10474112-279.75254589-281.15833799-279.75254678-154.28563769 0-281.15833799 146.5537834-281.15833798 274.83227578a458.35838086 458.35838086 0 0 0 42.52519863 196.81083632 450.0993542 450.0993542 0 0 0 549.66455068 235.82155606 266.32723536 266.32723536 0 0 1-221.06074307-28.46728125z"
        fill="#0C88DA" p-id="1266"></path>
    <path
        d="M597.25518594 585.31186074c-2.8115833 3.51447891-11.59778145 8.78619815-11.59778145 20.03253135 0 9.13764638 5.97461484 17.92384365 16.51805244 25.30425059 50.60850117 35.14479258 145.85088779 30.57596895 146.20233604 30.57596982a209.99013398 209.99013398 0 0 0 106.48871982-29.17017773 215.43757646 215.43757646 0 0 0 106.84016895-185.91595137c1.05434385-78.72433506-28.11583388-131.09007481-39.71361533-154.2856377a387.15503115 387.15503115 0 0 0-73.59319512-100.05722402 433.86246036 433.86246036 0 0 0-125.39661856-85.33155498A511.98933339 511.98933339 0 0 0 511.85334043 62.0059045 449.85334042 449.85334042 0 0 0 62 505.53318271c1.75723945-128.27849151 129.33283535-231.95562891 281.15833799-231.9556289 12.30067705 0 82.59026221 1.05434385 147.60812724 35.49623994 57.28601162 30.22452158 87.51053232 66.42365713 108.24596016 102.62279356 21.7897708 37.60492763 25.65569795 84.69894902 25.65569883 103.6771374s-9.48909375 46.74257402-27.41293828 69.93813604z"
        fill="#2CC3D5" p-id="1267"></path>
    <path
        d="M632.89200518 75.29063574s327.51431894 338.51463925-42.66577794 521.4081375c0 0-23.93360332 39.74876016 90.39240615 60.30846387 0 0 189.39528545 41.15455136 265.8352087-125.25603926 15.39341894-52.19001651 29.09988809-133.0581832-11.59778144-223.06399717a376.04927724 376.04927724 0 0 0-67.6537251-99.91664385 480.21844131 480.21844131 0 0 0-99.38947324-83.22286816c-60.16788457-30.75169307-134.92085713-50.25705293-134.92085713-50.25705293z"
        fill="#49D668" p-id="1268"></path>
</svg>
