<svg t="1649586106324" class="icon" viewBox="0 0 1024 1024" version="1.1" xmlns="http://www.w3.org/2000/svg" p-id="799"
    width="128" height="128">
    <path
        d="M446.69293074 601.58983633H277.61850898v-132.27320955c109.95116277-14.78081473 194.71461063-108.8953903 194.71461063-222.7679937 0-124.12867897-100.60003508-224.87953869-224.87953868-224.87953869S22.57404224 122.41995411 22.57404224 246.54863308c0 113.87260342 84.76344785 208.13800361 194.7146106 222.7679937v132.27320955H48.06340644c-16.59071043 0-30.16492806 13.57421762-30.16492806 30.16492808s13.57421762 30.16492806 30.16492806 30.16492805h169.2252464v310.2462851c0 16.59071043 13.57421762 30.16492806 30.16492809 30.16492805s30.16492806-13.57421762 30.16492805-30.16492805V661.91969246h169.22524641c16.59071043 0 30.16492806-13.57421762 30.16492807-30.16492805-0.15082465-16.59071043-13.72504228-30.16492806-30.31575272-30.16492808zM247.45358093 411.09831565c-43.88997033 0-85.21592177-17.04318435-116.28579768-48.11306026s-48.11306026-72.39582734-48.11306025-116.28579768c0-43.88997033 17.04318435-85.21592177 48.11306025-116.28579767s72.39582734-48.11306026 116.28579768-48.11306024 85.21592177 17.04318435 116.28579765 48.11306024 48.11306026 72.39582734 48.11306027 116.28579767c0 43.88997033-17.04318435 85.21592177-48.11306027 116.28579768s-72.39582734 48.11306026-116.28579765 48.11306026zM811.23608637 554.53254857v-429.85022485l138.00454588 138.00454586c11.76432195 11.76432195 30.91905125 11.76432195 42.68337317 0 11.76432195-11.76432195 11.76432195-30.91905125 0-42.6833732L803.84567898 31.77434529c-0.45247391-0.45247391-0.7541232-0.90494785-1.20659711-1.35742177-5.88216097-5.88216097-13.57421762-8.74782914-21.41709895-8.74782913h-0.90494782c-0.7541232 0-1.50824641 0-2.26236961 0.15082463-0.45247391 0-1.05577248 0.15082465-1.50824642 0.15082465-0.45247391 0-0.90494785 0.15082465-1.35742176 0.15082464-0.45247391 0.15082465-0.90494785 0.15082465-1.35742176 0.30164928-0.60329857 0.15082465-1.05577248 0.30164928-1.65907103 0.45247393-0.30164928 0.15082465-0.60329857 0.15082465-0.90494785 0.30164926-0.7541232 0.30164928-1.35742176 0.45247391-1.96072033 0.75412322-0.15082465 0-0.15082465 0.15082465-0.30164928 0.15082463-3.46896672 1.50824641-6.63628417 3.61979137-9.35112769 6.33463489-0.45247391 0.45247391-0.7541232 0.90494785-1.20659713 1.35742177L570.51996045 219.85267173c-11.76432195 11.76432195-11.76432195 30.91905125 0 42.68337321 11.76432195 11.76432195 30.91905125 11.76432195 42.68337318 0l137.7028966-137.70289659v429.85022487c-109.80033812 14.78081473-194.56378597 108.8953903-194.56378598 222.7679937 0 124.12867897 100.60003508 224.87953869 224.87953867 224.87953869S1006.10152162 901.58004589 1006.10152162 777.45136692c0-114.02342806-84.76344785-208.13800361-194.86543525-222.91881835z m86.27169423 339.20461603c-31.06987589 31.06987589-72.39582734 48.11306026-116.28579768 48.11306024-43.88997033 0-85.21592177-17.04318435-116.28579765-48.11306024s-48.11306026-72.39582734-48.11306027-116.28579768 17.04318435-85.21592177 48.11306027-116.28579768 72.39582734-48.11306026 116.28579765-48.11306024c43.88997033 0 85.21592177 17.04318435 116.28579768 48.11306024 31.06987589 31.06987589 48.11306026 72.39582734 48.11306026 116.28579768s-16.89235971 85.21592177-48.11306026 116.28579768z"
        p-id="800"></path>
</svg>
