<svg viewBox="0 0 1024 1024" version="1.1" xmlns="http://www.w3.org/2000/svg">
    <path
        d="M454.60120866 590.74106709H306.00064266v-116.25575058c96.63676416-12.99095045 171.13588825-95.70883913 171.13588824-195.79218197 0-109.09747175-88.41799958-197.64803205-197.64803204-197.64803205S81.84046681 169.59566279 81.84046681 278.69313454c0 100.08334285 74.49912409 182.93379223 171.13588823 195.79218197v116.25575058H104.24322832c-14.58167909 0-26.51214381 11.93046471-26.51214381 26.51214381s11.93046471 26.51214381 26.51214381 26.5121438h148.73312672v272.67739901c0 14.58167909 11.93046471 26.51214381 26.51214382 26.5121438s26.51214381-11.93046471 26.5121438-26.5121438V643.7653547h148.73312673c14.58167909 0 26.51214381-11.93046471 26.5121438-26.5121438-0.13256073-14.58167909-12.06302544-26.51214381-26.64470453-26.51214381zM279.48849886 423.31687899c-38.57516923 0-74.89680624-14.97936125-102.20431436-42.28686937s-42.28686937-63.62914512-42.28686937-102.20431437c0-38.57516923 14.97936125-74.89680624 42.28686937-102.20431435s63.62914512-42.28686937 102.20431436-42.28686936 74.89680624 14.97936125 102.20431435 42.28686936 42.28686937 63.62914512 42.28686937 102.20431435c0 38.57516923-14.97936125 74.89680624-42.28686937 102.20431437s-63.62914512 42.28686937-102.20431435 42.28686937zM775.00046653 549.38212276v-377.79804918l121.2930579 121.29305789c10.33973609 10.33973609 27.17494739 10.33973609 37.51468346 0 10.33973609-10.33973609 10.33973609-27.17494739 0-37.51468348L768.50499129 89.92667067c-0.39768215-0.39768215-0.66280359-0.79536432-1.06048574-1.19304648-5.16986804-5.16986804-11.93046471-7.68852171-18.82362212-7.6885217h-0.7953643c-0.66280359 0-1.3256072 0-1.98841079 0.13256071-0.39768215 0-0.92792503 0.13256073-1.3256072 0.13256073-0.39768215 0-0.79536432 0.13256073-1.19304647 0.13256072-0.39768215 0.13256073-0.79536432 0.13256073-1.19304647 0.26512143-0.53024288 0.13256073-0.92792503 0.26512144-1.4581679 0.39768217-0.26512144 0.13256073-0.53024288 0.13256073-0.79536432 0.26512142-0.66280359 0.26512144-1.19304647 0.39768215-1.72328935 0.66280361-0.13256073 0-0.13256073 0.13256073-0.26512144 0.13256071-3.04889653 1.3256072-5.83267163 3.18145726-8.21876457 5.5675502-0.39768215 0.39768215-0.66280359 0.79536432-1.06048576 1.19304648L563.43355899 255.22988727c-10.33973609 10.33973609-10.33973609 27.17494739 0 37.51468348 10.33973609 10.33973609 27.17494739 10.33973609 37.51468346 0l121.02793646-121.02793646v377.7980492c-96.50420343 12.99095045-171.00332752 95.70883913-171.00332752 195.79218197 0 109.09747175 88.41799958 197.64803205 197.64803204 197.64803205S946.26891549 854.40433721 946.26891549 745.30686546c0-100.21590357-74.49912409-182.93379223-171.26844896-195.9247427z m75.82473126 298.12905706c-27.30750811 27.30750811-63.62914512 42.28686937-102.20431436 42.28686936-38.57516923 0-74.89680624-14.97936125-102.20431435-42.28686936s-42.28686937-63.62914512-42.28686937-102.20431436 14.97936125-74.89680624 42.28686937-102.20431437 63.62914512-42.28686937 102.20431435-42.28686935c38.57516923 0 74.89680624 14.97936125 102.20431436 42.28686935 27.30750811 27.30750811 42.28686937 63.62914512 42.28686938 102.20431437s-14.84680053 74.89680624-42.28686938 102.20431436z"
        p-id="1885"></path>
</svg>
