<svg t="1649588095133" class="icon" viewBox="0 0 1024 1024" version="1.1" xmlns="http://www.w3.org/2000/svg" p-id="860"
    width="128" height="128">
    <path
        d="M613.18221343 619.86804534v-24.8385152c0-13.66118319-11.17733202-24.8385152-24.8385152-24.8385152h-99.35406316c-13.66118319 0-24.8385152 11.17733202-24.8385152 24.8385152v24.8385152c0 13.66118319 11.17733202 24.8385152 24.8385152 24.83851636h14.90310937l-38.74808432 144.56016074c-0.49677069 2.73223711 0 5.71285897 1.73869687 7.9483242l59.86082217 79.98002099a14.90310934 14.90310934 0 0 0 23.84497498 0l59.86082217-79.98002099c1.7386957-2.2354664 2.2354664-5.21608828 1.73869687-7.9483242L573.44058886 644.7065617h14.90310937c13.66118319 0 24.8385152-11.17733202 24.8385152-24.83851636zM538.66666665 545.35249857c-122.95065217 0-223.5466403-100.59598813-223.5466403-223.5466403v-99.35406198c0-122.95065217 100.59598813-223.5466403 223.5466403-223.54664032s223.5466403 100.59598813 223.5466403 223.54664032v99.35406198c0 122.95065217-100.59598813 223.5466403-223.5466403 223.5466403z"
        p-id="861"></path>
    <path
        d="M842.69009747 595.02953014l-56.63181555-12.41925819c-10.43217655-2.2354664-21.3611238 2.48385117-26.57721207 11.92248749l-205.41452314 367.85841627c-6.70639922 11.92248749-24.09335973 11.92248749-30.79976012 0l-210.87899735-377.54543736a24.16787528 24.16787528 0 0 0-26.5772109-11.92248748L184.96620426 595.02953014A148.93173988 148.93173988 0 0 0 66.73487083 740.83161704V917.93023241c0 54.89311984 44.46094329 99.35406198 99.35406197 99.35406314h695.47843613c54.89311984 0 99.35406198-44.46094329 99.35406313-99.35406314v-177.09861537c0-70.54138467-49.42864564-131.39574707-118.23133459-145.8020869z"
        p-id="862"></path>
</svg>
