<svg viewBox="0 0 1024 1024" version="1.1" xmlns="http://www.w3.org/2000/svg">
    <path
        d="M600.92967977 606.80589923v-21.83072625c0-12.00689929-9.82382697-21.83072625-21.83072625-21.83072625h-87.32290707c-12.00689929 0-21.83072625 9.82382697-21.83072625 21.83072625v21.83072625c0 12.00689929 9.82382697 21.83072625 21.83072625 21.83072726h13.09843597l-34.05593349 127.05482878c-0.43661486 2.40138027 0 5.02106745 1.52815155 6.98583181l52.61205073 70.29494033a13.09843595 13.09843595 0 0 0 20.95749755 0l52.61205073-70.29494033c1.52815052-1.96476539 1.96476539-4.58445259 1.52815155-6.98583181L566.00051756 628.63662649h13.09843596c12.00689929 0 21.83072625-9.82382697 21.83072625-21.83072726zM535.43749998 541.31371945c-108.06209663 0-196.47653932-88.41444269-196.47653932-196.47653933v-87.32290604c0-108.06209663 88.41444269-196.47653932 196.47653932-196.47653934s196.47653932 88.41444269 196.47653934 196.47653934v87.32290604c0 108.06209663-88.41444269 196.47653932-196.47653934 196.47653933z"
        p-id="1576"></path>
    <path
        d="M802.64559348 584.97517298l-49.77405664-10.91536365c-9.16890518-1.96476539-18.77442521 2.18307232-23.3588778 10.47874878l-180.54010822 323.31306117c-5.89429619 10.47874877-21.17580445 10.47874877-27.07010167 0l-185.34286877-331.82704456a21.24129664 21.24129664 0 0 0-23.35887676-10.47874876L224.56795296 584.97517298A130.89703701 130.89703701 0 0 0 120.65369506 713.12153842V868.77461833c0 48.24590611 39.07700093 87.32290604 87.32290603 87.32290706h611.26034426c48.24590611 0 87.32290604-39.07700093 87.32290705-87.32290707v-155.65307991c0-61.99926387-43.44314558-115.48454332-103.91425892-128.14636543z"
        p-id="1577"></path>
</svg>
