<svg viewBox="0 0 1024 1024" version="1.1" xmlns="http://www.w3.org/2000/svg" p-id="3498" width="128" height="128">
    <path
        d="M689.6 347.7c11.7 0 23.2 0.9 34.6 2.1C693.1 206.5 538.2 100 361.5 100 163.9 99.9 2 233.2 2 402.5c0 97.7 53.9 177.9 143.9 240.1l-36 107 125.7-62.4c45 8.8 81.1 17.9 125.9 17.9 11.3 0 22.4-0.5 33.6-1.4C388 680 384 655 384 629.2c0-155.4 134.8-281.5 305.6-281.5z m-193.3-96.5c27.1 0 45 17.6 45 44.4 0 26.7-17.9 44.5-45 44.5-27 0-54-17.9-54-44.5 0.1-26.8 27.1-44.4 54-44.4z m-251.6 88.9c-27 0-54.2-17.9-54.2-44.5 0-26.8 27.2-44.4 54.2-44.4 26.9 0 44.9 17.6 44.9 44.4 0 26.7-17.9 44.5-44.9 44.5z"
        p-id="3499"></path>
    <path
        d="M1022 630.3c0-142.2-143.8-258.2-305.4-258.2-171.1 0-305.8 115.9-305.8 258.2 0 142.4 134.7 258.1 305.8 258.1 35.8 0 71.9-8.9 107.8-17.8L923 924l-27-88.9c72.2-53.5 126-124.6 126-204.8z m-404.5-44.5c-17.9 0-36-17.6-36-35.6 0-17.7 18.1-35.6 36-35.6 27.2 0 45 17.8 45 35.6 0 18-17.8 35.6-45 35.6z m197.7 0c-17.8 0-35.7-17.6-35.7-35.6 0-17.7 17.9-35.6 35.7-35.6 27 0 45 17.8 45 35.6 0 18-18 35.6-45 35.6z"
        fill="#EFF3F9" p-id="3500"></path>
</svg>
